<svg id="Layer_1" data-name="Layer 1" xmlns="http://www.w3.org/2000/svg" viewBox="0 0 173 173"><defs><style>.cls-1{fill:#00b2a9;}</style></defs><title>HIAS Web Store Icons_CS5</title><path class="cls-1" d="M72.68,135.07a14.87,14.87,0,1,0,14.87,14.86A14.88,14.88,0,0,0,72.68,135.07Zm0,21.43a6.57,6.57,0,1,1,6.56-6.57A6.58,6.58,0,0,1,72.68,156.5Z"/><path class="cls-1" d="M124.83,135.07a14.87,14.87,0,1,0,14.86,14.86A14.88,14.88,0,0,0,124.83,135.07Zm0,21.43a6.57,6.57,0,1,1,6.56-6.57A6.58,6.58,0,0,1,124.83,156.5Z"/><path class="cls-1" d="M128.49,56.79H69a4.15,4.15,0,1,0,0,8.3h59.48a4.15,4.15,0,0,0,0-8.3Z"/><path class="cls-1" d="M125.25,78.35h-53a4.15,4.15,0,1,0,0,8.3h53a4.15,4.15,0,0,0,0-8.3Z"/><path class="cls-1" d="M169,38.3a8.29,8.29,0,0,0-6.44-3.06H33.25L30.64,22.57a8.29,8.29,0,0,0-4.82-5.94L7.6,8.72a4.15,4.15,0,1,0-3.31,7.61l18.22,7.91,20.08,97.49a8.34,8.34,0,0,0,8.14,6.62h99.43a4.15,4.15,0,0,0,0-8.3H50.73L48.28,108.2H150.93a8.33,8.33,0,0,0,8.13-6.63l11.61-56.35A8.26,8.26,0,0,0,169,38.3Zm-18,61.59H46.57L35,43.54H162.54Z"/></svg>