<svg id="Layer_1" data-name="Layer 1" xmlns="http://www.w3.org/2000/svg" viewBox="0 0 173 173"><defs><style>.cls-1{fill:#00b2a9;}</style></defs><title>HIAS Web Store Icons_CS5</title><path class="cls-1" d="M160.43,33.77H13.54a7.55,7.55,0,0,0-7.43,7.65V64.36a6.31,6.31,0,0,0,2.83,5.33C13.51,72.6,17,77.62,17,83.12s-3.53,10.52-8.1,13.43a6.32,6.32,0,0,0-2.83,5.33v22.94a7.55,7.55,0,0,0,7.43,7.65H160.43a7.55,7.55,0,0,0,7.43-7.65V41.42A7.55,7.55,0,0,0,160.43,33.77Zm.28,88.53a2.75,2.75,0,0,1-2.7,2.78l-114.24-.17a2.37,2.37,0,1,0-4.74,0l-22.83.17a2.75,2.75,0,0,1-2.7-2.78V101.88a1.39,1.39,0,0,1,.59-1.18,21,21,0,0,0,0-35.16,1.39,1.39,0,0,1-.59-1.18V44.19a2.74,2.74,0,0,1,2.7-2.77L39,41.58a2.37,2.37,0,1,0,4.74,0L158,41.42a2.74,2.74,0,0,1,2.7,2.77Z"/><path class="cls-1" d="M41.4,78.08A2.4,2.4,0,0,0,39,80.51v5.22a2.37,2.37,0,1,0,4.74,0V80.51A2.4,2.4,0,0,0,41.4,78.08Z"/><path class="cls-1" d="M41.4,46.8A2.4,2.4,0,0,0,39,49.24v5.21a2.37,2.37,0,1,0,4.74,0V49.24A2.4,2.4,0,0,0,41.4,46.8Z"/><path class="cls-1" d="M41.4,62.44A2.4,2.4,0,0,0,39,64.88v5.21a2.37,2.37,0,1,0,4.74,0V64.88A2.4,2.4,0,0,0,41.4,62.44Z"/><path class="cls-1" d="M41.4,93.71A2.41,2.41,0,0,0,39,96.15v5.22a2.37,2.37,0,1,0,4.74,0V96.15A2.41,2.41,0,0,0,41.4,93.71Z"/><path class="cls-1" d="M41.4,109.35A2.4,2.4,0,0,0,39,111.79V117a2.37,2.37,0,1,0,4.74,0v-5.21A2.4,2.4,0,0,0,41.4,109.35Z"/><path class="cls-1" d="M140.89,49.52h-26.1V70.06h-15V49.52H73.74v22.9a23.6,23.6,0,0,0,2.55,10.69,23.65,23.65,0,0,0-2.55,10.71v22.9h26.1V96.18h15v20.54h26.1V93.82a23.48,23.48,0,0,0-2.56-10.69,23.53,23.53,0,0,0,2.56-10.71ZM78.45,54.24H95.12V70.18a23.69,23.69,0,0,0-15.7,8.24,19,19,0,0,1-1-6ZM95.13,112H78.45V93.82a19.08,19.08,0,0,1,1-6,23.72,23.72,0,0,0,15.71,8.25Zm2.25-20.55a19,19,0,0,1-15.63-8.35,19,19,0,0,1,15.7-8.34h19.8a19,19,0,0,1,15.63,8.35,19,19,0,0,1-15.71,8.34ZM136.18,112H119.49v-16a23.73,23.73,0,0,0,15.72-8.24,19,19,0,0,1,1,6Zm0-39.59a18.8,18.8,0,0,1-1,6,23.68,23.68,0,0,0-15.71-8.25V54.24h16.69Z"/></svg>