<svg id="Layer_1" data-name="Layer 1" xmlns="http://www.w3.org/2000/svg" viewBox="0 0 173 173"><defs><style>.cls-1{fill:#00b2a9;}</style></defs><title>HIAS Web Store Icons_CS5</title><path class="cls-1" d="M86.5,5.1A81.37,81.37,0,0,0,36.29,150.53l.44.38a80.55,80.55,0,0,0,45.41,16.87l.36,0c.52,0,1,0,1.58.06h.47l2,0c.66,0,1.31,0,2,0h.45c.54,0,1.08,0,1.61-.06l.31,0a80.49,80.49,0,0,0,46-17.32,5.68,5.68,0,0,0,.51-.47A81.36,81.36,0,0,0,86.5,5.1Zm3.81,152.79-.27,0-1.42.05h-.39c-.58,0-1.15,0-1.73,0s-1.15,0-1.72,0h-.41L83,157.91l-.32,0A70.44,70.44,0,0,1,48.47,147v-44.6a11.21,11.21,0,0,1,3.11-7.75,41.13,41.13,0,0,0,9.84,11.18l.22.19a40.33,40.33,0,0,0,22.73,8.45h.18c.26,0,.53,0,.79,0h2.42q.4,0,.81,0h.16a40.34,40.34,0,0,0,23-8.68l.26-.23a41.23,41.23,0,0,0,9.45-10.84,11.22,11.22,0,0,1,3,7.68v44.61A70.43,70.43,0,0,1,90.31,157.89ZM133.89,140V102.44a20.61,20.61,0,0,0-8.4-16.6,40.88,40.88,0,0,0,1.82-12,40.41,40.41,0,0,0-.74-7.75,4.14,4.14,0,1,0-8.12,1.57A32.44,32.44,0,0,1,106.84,99.2l-.21.18a32.13,32.13,0,0,1-18.39,6.93h-.13l-.64,0H85.53l-.63,0h-.14A32.21,32.21,0,0,1,66.6,99.56l-.18-.15A32.53,32.53,0,0,1,100,44.18a4.19,4.19,0,0,0,4.26-.45,4.12,4.12,0,0,0-.82-7A40.74,40.74,0,0,0,47.6,85.78a20.6,20.6,0,0,0-8.49,16.66V140a71.51,71.51,0,1,1,94.78,0Z"/></svg>