<svg id="Layer_1" data-name="Layer 1" xmlns="http://www.w3.org/2000/svg" viewBox="0 0 173 173"><defs><style>.cls-1{fill:#00b2a9;}</style></defs><title>HIAS Web Store Icons_CS5</title><path class="cls-1" d="M164,152.91V103.38C164,96,160.19,92,159,91L93.91,26.71a10.19,10.19,0,0,0-15.41.17c-23,23.37-58.61,59.18-62.59,62.39a18.25,18.25,0,0,0-7,14.66v50a17.25,17.25,0,0,0,4.87,12.54c5.51,5.48,13.48,5.67,14.52,5.67H63.39c4.1,0,7.16-1.23,9.09-3.67a8.59,8.59,0,0,0,1.75-6.38V119.81a3.59,3.59,0,0,1,.54-2.37,2.4,2.4,0,0,1,1.41-.34l21.51.05h.15a4.1,4.1,0,0,1,.69,1.94v42.69c0,4.59,1.91,7.1,3.51,8.39a9.31,9.31,0,0,0,7,1.9h39.6a14.14,14.14,0,0,0,10.52-4.3C164.13,162.5,164.07,154.39,164,152.91Zm-12.14,8a4,4,0,0,1-3.26,1.18h-40l-.1-.08V118.62c-.31-5.7-4.13-11.48-10.84-11.48H77.14a12.33,12.33,0,0,0-8.91,2.74c-1.83,1.58-4,4.59-4,9.93V162.1c-.23,0-.5,0-.84,0h-35c-2.21,0-9.42-.68-9.42-8.21V103.62l0-.23a8.15,8.15,0,0,1,3.26-6.33c5.71-4.61,57.65-57.28,63.56-63.27l.28-.3a1.73,1.73,0,0,1,.21-.17,3,3,0,0,1,.64.52l65.23,64.35.3.28a7.11,7.11,0,0,1,1.59,4.91v49.9C154.09,154.86,153.67,159,151.87,160.88Z"/><path class="cls-1" d="M163.07,86.64c-15-14.81-71.22-70.36-76.33-75.45L9.88,84.57a5,5,0,0,1-7.08-.16h0A5,5,0,0,1,3,77.33l77-73.46a9.9,9.9,0,0,1,6.62-3,9.4,9.4,0,0,1,7,3c3,3,61.38,60.7,76.52,75.66a5,5,0,0,1,0,7.08h0A5,5,0,0,1,163.07,86.64Z"/></svg>