<svg id="Layer_1" data-name="Layer 1" xmlns="http://www.w3.org/2000/svg" viewBox="0 0 173 173"><defs><style>.cls-1{fill:#00b2a9;}</style></defs><title>HIAS Web Store Icons_CS5</title><path class="cls-1" d="M169.14,22,151,3.31a6,6,0,0,0-4.33-1.83H26.06a6,6,0,0,0-4.42,1.93L3.54,22.93A6,6,0,0,0,1.93,27V152.29A18.12,18.12,0,0,0,20,170.39H152.74a18.12,18.12,0,0,0,18.1-18.1V26.18A6.07,6.07,0,0,0,169.14,22ZM28,10.75h116.2l14.41,14.86H14.72ZM155.53,158.32H17.24a6,6,0,0,1-6-6V34.88H161.57V152.29A6,6,0,0,1,155.53,158.32Z"/><path class="cls-1" d="M56.52,73.87h60.33a18.09,18.09,0,0,0,18.09-18.1v-4a2.06,2.06,0,0,0-2.06-2.07H125a2.06,2.06,0,0,0-2.07,2.07v4a6,6,0,0,1-6,6H56.52a6,6,0,0,1-6-6V52.1a2.36,2.36,0,0,0-2.36-2.36H40.78a2.36,2.36,0,0,0-2.36,2.36v3.67a18.1,18.1,0,0,0,18.1,18.1Z"/><path class="cls-1" d="M62.55,122.13H80.83V101a2.62,2.62,0,0,1,2.62-2.62H90.1A2.62,2.62,0,0,1,92.72,101v21.17h18.09L86.68,146.26Z"/></svg>