<svg id="Layer_1" data-name="Layer 1" xmlns="http://www.w3.org/2000/svg" viewBox="0 0 173 173"><defs><style>.cls-1,.cls-2{fill:#00b2a9;}.cls-2{stroke:#00b2a9;stroke-miterlimit:10;stroke-width:2px;}</style></defs><title>HIAS Web Store Icons_CS5</title><path class="cls-1" d="M168.29,92.23,135.61,59.54A7.86,7.86,0,0,0,130,57.23H86.85a2,2,0,0,0-2,2v1.18a2.05,2.05,0,0,0,2,2H98v37.82A1.68,1.68,0,0,0,99.65,102h1.92a1.67,1.67,0,0,0,1.67-1.67V62.5H130a2.55,2.55,0,0,1,1.86.77l4.5,4.49H124.3A5.27,5.27,0,0,0,119,73V96.72A5.27,5.27,0,0,0,124.3,102h39.5v21.06a2.64,2.64,0,0,1-2.63,2.64h-5.48a18.41,18.41,0,0,0-36.44,0H82a18.41,18.41,0,0,0-36.44,0H40.05a2.64,2.64,0,0,1-2.63-2.64V100.91a1.55,1.55,0,0,0-1.56-1.55H33.71a1.55,1.55,0,0,0-1.56,1.55v22.14a7.9,7.9,0,0,0,7.9,7.9h5.48a18.31,18.31,0,0,0,5.34,10.53h-38a1.79,1.79,0,0,0-1.79,1.79V145a1.79,1.79,0,0,0,1.79,1.79H137.47A18.45,18.45,0,0,0,155.69,131h5.48a7.89,7.89,0,0,0,7.89-7.9v-29A2.59,2.59,0,0,0,168.29,92.23ZM50.58,128.32a13.17,13.17,0,1,1,13.17,13.16A13.17,13.17,0,0,1,50.58,128.32Zm26,13.16A18.38,18.38,0,0,0,82,131h37.28a18.26,18.26,0,0,0,5.35,10.53Zm60.85,0a13.16,13.16,0,1,1,13.16-13.16A13.16,13.16,0,0,1,137.47,141.48ZM124.3,96.72V73h17.35L163.8,95.18v1.54Z"/><path class="cls-2" d="M79.64,54.33l-9-9,8.94-8.94c1.23-1.87-.63-2.53-.63-2.53s-24.33-7.45-26-8.14-2.44.1-2.44.1l-8.26,9.3s-7.91-9.85-8.3-10.3-1.55,0-1.55,0l-29,9.05a1.43,1.43,0,0,0-1,1.22,1.77,1.77,0,0,0,.84,1.71L12,45.53,6.34,54.88a2,2,0,0,0-.3,1.6c.09.53.84.87.84.87l8.49,2.84V83.31a1.63,1.63,0,0,0,1,1.63l24.3,9.11A1.92,1.92,0,0,0,41.93,94l27-9a1.55,1.55,0,0,0,1-1.44V59.57l9-2.82A1.53,1.53,0,0,0,79.64,54.33ZM51.84,28.06,75.62,36l-7.56,7.57L45.14,36ZM6.69,36l26.58-8.4,6.1,7.63-25.1,8.34Zm3,19.12,4.8-8,24.36,8.12-4.8,8ZM39.64,90.43l-21.23-8V61.2c16.71,5.54,15.89,5.37,16.36,5.37a1.53,1.53,0,0,0,1.3-.73l3.57-6ZM40.89,52.8,18.65,45.3l23.56-8,21.46,8ZM67,82.43,42.68,90.52V58.72l5.38,6.72a1.5,1.5,0,0,0,1.63.5L67,60.52ZM49.78,62.74,43.7,55.15,68.06,47l7.57,7.58Z"/></svg>