<svg id="Layer_1" data-name="Layer 1" xmlns="http://www.w3.org/2000/svg" viewBox="0 0 173 173"><defs><style>.cls-1{fill:#00b2a9;}</style></defs><title>HIAS Web Store Icons_CS5</title><path class="cls-1" d="M105.78,22.26a3.41,3.41,0,0,0-4.82,0l-18,18-4.41-4.4a3.41,3.41,0,1,0-4.82,4.82l6.82,6.81a3.41,3.41,0,0,0,4.82,0l20.45-20.45A3.41,3.41,0,0,0,105.78,22.26Z"/><path class="cls-1" d="M150.05,64.26l19.32-19.32A3.28,3.28,0,0,0,168,39.49L121,25a32.79,32.79,0,0,0-61.7-2.46L4.78,39.5a3.28,3.28,0,0,0-1.34,5.44L23.27,64.77,10.76,85.61a3.28,3.28,0,0,0,1.78,4.8l18.13,6v50.42a3.28,3.28,0,0,0,2.13,3.07l52.51,19.69a3.28,3.28,0,0,0,2.1,0h0l59-19.67a3.27,3.27,0,0,0,2.24-3.11V95.1L168,89a3.28,3.28,0,0,0,1.33-5.45Zm-27.59-29.5c0-.83,0-1.67-.09-2.49l38.51,11.88L144.52,60.51,117.8,51.6A32.89,32.89,0,0,0,122.46,34.76ZM65,26a26.18,26.18,0,0,1,50.15,2.14,26.77,26.77,0,0,1,.78,6.37A26.18,26.18,0,0,1,89.73,60.66,26.18,26.18,0,0,1,65,26ZM11.91,44.14,57.25,30a32.75,32.75,0,0,0,3.28,19.76L28.28,60.51Zm6.58,41.34L28.85,68.2,81.49,85.75,71.12,103Zm64.63,76.33L37.23,144.6v-46c36.11,12,34.35,11.61,35.35,11.61a3.27,3.27,0,0,0,2.81-1.6l7.73-12.88ZM86.4,80.48,37.76,64.26l26.49-8.83a32.77,32.77,0,0,0,49.39,1.7L135,64.26Zm55.73,64L89.68,162V93.28L101.3,107.8a3.28,3.28,0,0,0,3.55,1.08l37.28-11.72ZM105,102,91.9,85.55,144.52,68,160.9,84.39Z"/></svg>