<svg id="Layer_1" data-name="Layer 1" xmlns="http://www.w3.org/2000/svg" viewBox="0 0 173 173"><defs><style>.cls-1{fill:#00b2a9;}</style></defs><title>HIAS Web Store Icons_CS5</title><path class="cls-1" d="M58.57,160.44H37a7.37,7.37,0,0,1-7.38-7.38V101.61a4.68,4.68,0,0,0-4.69-4.68h0a4.68,4.68,0,0,0-4.68,4.68v51.45A16.75,16.75,0,0,0,37,169.81H58.57a4.68,4.68,0,0,0,4.69-4.68h0A4.69,4.69,0,0,0,58.57,160.44Z"/><path class="cls-1" d="M29.58,81.53V19.76A7.37,7.37,0,0,1,37,12.38H139.12a7.38,7.38,0,0,1,7.39,7.38v4.82a4.68,4.68,0,0,0,4.68,4.68h0a4.68,4.68,0,0,0,4.68-4.68V19.76A16.75,16.75,0,0,0,139.12,3H37A16.75,16.75,0,0,0,20.21,19.76V81.53a4.69,4.69,0,0,0,4.68,4.69h0A4.69,4.69,0,0,0,29.58,81.53Z"/><path class="cls-1" d="M146.51,44.65V153.06a7.38,7.38,0,0,1-7.39,7.38H78.65A4.68,4.68,0,0,0,74,165.13h0a4.67,4.67,0,0,0,4.68,4.68h60.47a16.75,16.75,0,0,0,16.75-16.75V44.65A4.67,4.67,0,0,0,151.19,40h0A4.67,4.67,0,0,0,146.51,44.65Z"/><path class="cls-1" d="M134.07,52.92H42a4.81,4.81,0,0,1-4.81-4.81h0A4.81,4.81,0,0,1,42,43.3h92.06a4.81,4.81,0,0,1,4.81,4.81h0A4.81,4.81,0,0,1,134.07,52.92Z"/><path class="cls-1" d="M134.07,91.22H42a4.81,4.81,0,0,1-4.81-4.81h0A4.81,4.81,0,0,1,42,81.6h92.06a4.81,4.81,0,0,1,4.81,4.81h0A4.81,4.81,0,0,1,134.07,91.22Z"/><path class="cls-1" d="M134.07,129.52H42a4.81,4.81,0,0,1-4.81-4.81h0A4.81,4.81,0,0,1,42,119.9h92.06a4.81,4.81,0,0,1,4.81,4.81h0A4.81,4.81,0,0,1,134.07,129.52Z"/></svg>