<svg id="Layer_1" data-name="Layer 1" xmlns="http://www.w3.org/2000/svg" viewBox="0 0 170.16 171.28"><defs><style>.cls-1{fill:#00b2a9;}</style></defs><title>HIAS Web Store Icons_CS5</title><path class="cls-1" d="M149.8,140.64H63.26l2.42-4.13A37.52,37.52,0,0,0,21.38,82l-3.61,1.21V46.32A17.61,17.61,0,0,1,35.36,28.73H149.8c4.77,0,8.65,4.8,8.65,9.57v8.55L39.32,46.73c-1.36,0-2.76,0-3.16,4.14H158.45V77.11H118.54a6.76,6.76,0,0,0-6.76,6.75V107a6.77,6.77,0,0,0,6.76,6.76h39.91V132A8.66,8.66,0,0,1,149.8,140.64Zm-77.26-5.48H149.8A3.17,3.17,0,0,0,153,132V119.25H118.54A12.24,12.24,0,0,1,106.3,107V83.86a12.24,12.24,0,0,1,12.24-12.24H153V56.35H30.56V53.61c0-3.38,0-12.36,8.76-12.36L153,41.36A32.09,32.09,0,0,0,153,37c-.52-2.24-1.93-2.76-3.17-2.76H35.36A12.11,12.11,0,0,0,23.25,46.32V75.73a43,43,0,0,1,49.29,59.43Z"/><path class="cls-1" d="M154.72,79.51H126.25a11.77,11.77,0,0,0-11.76,11.75v8.28a11.77,11.77,0,0,0,11.76,11.75h28.47a11.76,11.76,0,0,0,11.75-11.75V91.26A11.76,11.76,0,0,0,154.72,79.51Zm6.26,20a6.27,6.27,0,0,1-6.26,6.26H126.25A6.27,6.27,0,0,1,120,99.54V91.26A6.28,6.28,0,0,1,126.25,85h28.47A6.28,6.28,0,0,1,161,91.26Z"/><path class="cls-1" d="M51.46,117a2,2,0,0,1-2,2H29V98.41a1.66,1.66,0,0,1,1.66-1.67H32.9a1.67,1.67,0,0,1,1.67,1.67v14.94H49.5a2,2,0,0,1,2,2Z"/><path class="cls-1" d="M34.84,83.83A30.19,30.19,0,1,0,65,114,30.19,30.19,0,0,0,34.84,83.83Zm0,54A23.83,23.83,0,1,1,58.67,114,23.83,23.83,0,0,1,34.84,137.85Z"/></svg>