<svg id="Layer_1" data-name="Layer 1" xmlns="http://www.w3.org/2000/svg" viewBox="0 0 173 173"><defs><style>.cls-1{fill:#00b2a9;}</style></defs><title>HIAS Web Store Icons_CS5</title><path class="cls-1" d="M95.72,163.81,5.6,73.68a5.18,5.18,0,0,1,7.21-7.45C25.17,61,31.52,49.72,38.23,37.8c7.29-13,14.83-26.37,30.68-31.69A5.71,5.71,0,0,1,74.5,7.35L93.21,26.06l-2.33,1.76c-5.76,4.34-13.61,9.43-23.31,10.26l-1.33.12-.85-1a5.11,5.11,0,0,0-4-1.87,5,5,0,0,0-2.11.46,5.11,5.11,0,0,0-2.54,6.77L76.87,86.75l-.71,1.15c-4.73,7.68-13.31,17.63-23.27,22.47l47.72,47.73c2,2,2.46,4.33.47,6.38S96.7,164.79,95.72,163.81ZM48.49,106.05c10.14-3.73,17.9-12.18,22.63-19.67l-19-41.76A10.2,10.2,0,0,1,68.33,32.89c5.52-.7,10.81-3,17.11-7.41L71,11a.94.94,0,0,0-.46-.07c-14,4.69-20.71,16.67-27.85,29.35S28.8,65.8,13.68,71.36ZM71,11Z"/><path class="cls-1" d="M113.55,162.61l-52.72-116a5.2,5.2,0,0,1,2.58-6.87,5.13,5.13,0,0,1,2.15-.46,5.2,5.2,0,0,1,4.65,2.89c10.4-.43,18.6-5.65,25.29-10.76,2.86-2.19,5.73-4.6,8.5-6.93,11-9.3,22.47-18.91,38.44-18.91h0l1.41,0a5.7,5.7,0,0,1,4.8,3.12L169.9,55.43a3.51,3.51,0,0,1-.18,3.38,3.77,3.77,0,0,1-3.25,1.63h-.15c-.44,0-.85,0-1.25,0-14.12,0-24.34,8.6-35.17,17.71C119.7,86.7,107.12,98,93,99.35l27.63,60.82c.57,1.27,2.08,4.06-1.05,5.92C119,166.48,115.31,167.39,113.55,162.61ZM89.77,92c15,0,26-8.6,36.85-17.71s22.09-18.59,37.64-18.9l-20.2-44.49a.92.92,0,0,0-.41-.22l-1.21,0c-14.11,0-24.34,8.6-35.17,17.71-2.81,2.37-5.72,4.82-8.68,7.08-7.66,5.85-17.36,11.63-29,11.83Z"/></svg>