<svg id="Layer_1" data-name="Layer 1" xmlns="http://www.w3.org/2000/svg" viewBox="0 0 173 173"><defs><style>.cls-1{fill:#00b2a9;}</style></defs><title>HIAS Web Store Icons_CS5</title><path class="cls-1" d="M143.57,17.41a28,28,0,1,0,28,28A28,28,0,0,0,143.57,17.41Zm0,50a22.06,22.06,0,1,1,22.06-22.06A22.06,22.06,0,0,1,143.57,67.42Z"/><path class="cls-1" d="M60.88,130A12.15,12.15,0,1,0,73,142.13,12.16,12.16,0,0,0,60.88,130Zm0,17.51a5.37,5.37,0,1,1,5.36-5.37A5.38,5.38,0,0,1,60.88,147.5Z"/><path class="cls-1" d="M103.48,130a12.15,12.15,0,1,0,12.15,12.14A12.16,12.16,0,0,0,103.48,130Zm0,17.51a5.37,5.37,0,1,1,5.36-5.37A5.37,5.37,0,0,1,103.48,147.5Z"/><path class="cls-1" d="M106.47,66.05H57.88a3.39,3.39,0,1,0,0,6.78h48.59a3.39,3.39,0,0,0,0-6.78Z"/><path class="cls-1" d="M103.83,83.65H60.52a3.39,3.39,0,0,0,0,6.78h43.3a3.39,3.39,0,1,0,0-6.78Z"/><path class="cls-1" d="M129.89,76.57l-5.09,24.69H39.55l-9.48-46H112a38.21,38.21,0,0,1-1.69-6.78H28.67L26.54,38.09a6.82,6.82,0,0,0-3.94-4.86L7.71,26.77A3.39,3.39,0,0,0,5,33L19.9,39.45l16.4,79.64a6.81,6.81,0,0,0,6.64,5.42h81.24a3.4,3.4,0,0,0,0-6.79H43L41,108H124.8a6.82,6.82,0,0,0,6.65-5.42l4.78-23.22A39.24,39.24,0,0,1,129.89,76.57Z"/><path class="cls-1" d="M157.68,33.66a3,3,0,0,0-4.24,0L137.58,49.52l-3.87-3.87a3,3,0,1,0-4.24,4.24l6,6a3,3,0,0,0,4.24,0l18-18A3,3,0,0,0,157.68,33.66Z"/></svg>