<svg id="Layer_1" data-name="Layer 1" xmlns="http://www.w3.org/2000/svg" viewBox="0 0 173 173"><defs><style>.cls-1{fill:#00b2a9;}</style></defs><title>HIAS Web Store Icons_CS5</title><path class="cls-1" d="M143.08,16.64A27.87,27.87,0,1,0,171,44.51,27.87,27.87,0,0,0,143.08,16.64Zm0,49.87a22,22,0,1,1,22-22A22,22,0,0,1,143.08,66.51Z"/><polygon class="cls-1" points="147.49 55.94 147.49 48.92 154.52 48.92 154.52 40.1 147.49 40.1 147.49 33.08 138.68 33.08 138.68 40.1 131.65 40.1 131.65 48.92 138.68 48.92 138.68 55.94 147.49 55.94"/><path class="cls-1" d="M60.62,128.9A12.12,12.12,0,1,0,72.73,141,12.13,12.13,0,0,0,60.62,128.9Zm0,17.46A5.35,5.35,0,1,1,66,141,5.36,5.36,0,0,1,60.62,146.36Z"/><path class="cls-1" d="M103.1,128.9A12.12,12.12,0,1,0,115.21,141,12.13,12.13,0,0,0,103.1,128.9Zm0,17.46a5.35,5.35,0,1,1,5.35-5.35A5.36,5.36,0,0,1,103.1,146.36Z"/><path class="cls-1" d="M106.08,65.14H57.63a3.38,3.38,0,1,0,0,6.76h48.45a3.38,3.38,0,1,0,0-6.76Z"/><path class="cls-1" d="M103.45,82.7H60.26a3.38,3.38,0,0,0,0,6.76h43.18a3.38,3.38,0,1,0,0-6.76Z"/><path class="cls-1" d="M129.44,75.63l-5.07,24.62h-85L29.89,54.34h81.72a38,38,0,0,1-1.69-6.76H28.5L26.37,37.25a6.74,6.74,0,0,0-3.93-4.83L7.6,26a3.38,3.38,0,0,0-2.69,6.21l14.84,6.44L36.11,118a6.79,6.79,0,0,0,6.62,5.4h81a3.39,3.39,0,0,0,0-6.77h-81l-2-9.66h83.63a6.79,6.79,0,0,0,6.62-5.4l4.77-23.15A39,39,0,0,1,129.44,75.63Z"/></svg>