<svg id="Layer_1" data-name="Layer 1" xmlns="http://www.w3.org/2000/svg" viewBox="0 0 173 173"><defs><style>.cls-1{fill:#00b2a9;}</style></defs><title>HIAS Web Store Icons_CS5</title><path class="cls-1" d="M169,75.53,149.76,56.24l19.08-19.08c2.63-4-1.34-5.39-1.34-5.39s-51.95-15.9-55.45-17.39-5.2.21-5.2.21L89.22,34.45s-16.88-21-17.73-22-3.29,0-3.29,0L6.28,31.78A3.09,3.09,0,0,0,4,34.39C3.59,36.67,5.84,38,5.84,38l18.69,18.7-12,20a4.39,4.39,0,0,0-.64,3.41c.2,1.13,1.8,1.87,1.8,1.87l18.13,6v49.36a3.49,3.49,0,0,0,2.1,3.47l51.87,19.45a4.19,4.19,0,0,0,2.72-.19L146.2,140.9a3.29,3.29,0,0,0,2.21-3.07V86.7l19.11-6C171.49,79,169,75.53,169,75.53ZM109.68,19.44l50.78,16.94L144.3,52.53,95.38,36.38ZM13.32,36.36,70,18.45l13,16.28L29.49,52.53Zm6.49,40.83L30.05,60.13,82,77.46,71.8,94.52Zm63.85,75.4-45.34-17V90.19C74,102,72.25,101.66,73.24,101.66A3.25,3.25,0,0,0,76,100.08l7.64-12.73Zm2.66-80.34-47.47-16L89.14,39.09l45.8,17.15Zm55.62,63.25L90.13,152.77V84.89l11.48,14.35a3.24,3.24,0,0,0,3.5,1.07l36.83-11.58Zm-36.66-42-13-16.2,52-17.33,16.18,16.18Z"/></svg>