<svg id="Layer_1" data-name="Layer 1" xmlns="http://www.w3.org/2000/svg" viewBox="0 0 173 173"><defs><style>.cls-1{fill:#00b2a9;}.cls-2{fill:#00b4aa;}</style></defs><title>HIAS Web Store Icons_CS5</title><path class="cls-1" d="M86.21,169.84A82.87,82.87,0,1,1,139.74,23.71V16.12a5.28,5.28,0,0,1,10.55,0V36.37A5.29,5.29,0,0,1,145,41.64H124.77a5.27,5.27,0,1,1,0-10.54h7.37A72.33,72.33,0,1,0,58.06,153.62,72.28,72.28,0,0,0,158.53,87a5.28,5.28,0,0,1,10.55,0A83,83,0,0,1,86.21,169.84Z"/><path class="cls-2" d="M47,63.28a6.1,6.1,0,0,0-6.1,6.1v41.78a6.1,6.1,0,0,0,6.1,6.1h82.27a6.1,6.1,0,0,0,6.1-6.1V69.38a6.1,6.1,0,0,0-6.1-6.1Zm79.73,27v13.19a6.11,6.11,0,0,1-6.1,6.1h-65a6.1,6.1,0,0,1-6.1-6.1V77.07a6.1,6.1,0,0,1,6.1-6.1h65a6.11,6.11,0,0,1,6.1,6.1Z"/><path class="cls-2" d="M88.05,75.6A14.46,14.46,0,1,0,102.5,90.06,14.46,14.46,0,0,0,88.05,75.6Zm0,23.13a8.67,8.67,0,1,1,8.67-8.67A8.68,8.68,0,0,1,88.05,98.73Z"/></svg>