<svg id="Layer_1" data-name="Layer 1" xmlns="http://www.w3.org/2000/svg" viewBox="0 0 173 173"><defs><style>.cls-1{fill:#00b2a9;}</style></defs><title>HIAS Web Store Icons_CS5</title><path class="cls-1" d="M164.4,142.13l-37.29-37.5c-.06-.06-.12-.1-.18-.15A67,67,0,1,0,100.86,128l38.85,38.84a17.46,17.46,0,1,0,24.69-24.7ZM70.56,124.37a56.55,56.55,0,1,1,56.55-56.54A56.55,56.55,0,0,1,70.56,124.37Zm86.56,35.18a7.18,7.18,0,0,1-10.13,0L109.9,122.46a67.58,67.58,0,0,0,10.75-9.73l36.47,36.69A7.18,7.18,0,0,1,157.12,159.55Z"/></svg>