<svg id="Layer_1" data-name="Layer 1" xmlns="http://www.w3.org/2000/svg" viewBox="0 0 173 173"><defs><style>.cls-1{fill:#00b4aa;}.cls-2{fill:#00b2a9;}</style></defs><title>HIAS Web Store Icons_CS5</title><path class="cls-1" d="M46,82.59h6.41l13.53,32.06H58.66l-2.89-7.14H42.41l-2.88,7.14H32.44Zm7.31,18.74L49.09,91l-4.2,10.32Z"/><path class="cls-1" d="M109.08,88l17.38-20.37H109.63V61.5h25.76v5.32L118,87.19h17.37v6.14H109.08Z"/><path class="cls-2" d="M152.8,123.12,107.65,168a4.58,4.58,0,0,1-6.47,0l-45-45a2,2,0,0,1,1.44-3.47h25V52.92a4,4,0,0,1,4-4h17.05L67.44,12l-37,37h19a3.5,3.5,0,0,1,3.5,3.5V72.28a3.53,3.53,0,0,1-3.52,3.52h0a3.52,3.52,0,0,1-3.52-3.52V56H19.21a2.37,2.37,0,0,1-1.68-4.05l47-47a4.2,4.2,0,0,1,6,0l44.81,45.71A3.1,3.1,0,0,1,113.07,56H89.67v66.43a4.17,4.17,0,0,1-4.17,4.17H69.75l34.67,34.67,34.92-34.67H123.21a4.18,4.18,0,0,1-4.18-4.18V102.63a3.53,3.53,0,0,1,3.52-3.53h0a3.52,3.52,0,0,1,3.52,3.53v16.88h25.24A2.11,2.11,0,0,1,152.8,123.12Z"/></svg>