<svg id="Layer_1" data-name="Layer 1" xmlns="http://www.w3.org/2000/svg" viewBox="0 0 173 173"><defs><style>.cls-1{fill:#00b4aa;}.cls-2{fill:#00b2a9;}</style></defs><title>HIAS Web Store Icons_CS5</title><path class="cls-1" d="M123.47,78.51h-24a4.15,4.15,0,0,1-4.14-4.14V50.1A4.14,4.14,0,0,0,91.21,46h-8a4.14,4.14,0,0,0-4.14,4.14V74.37a4.15,4.15,0,0,1-4.14,4.14H51a4.14,4.14,0,0,0-4.14,4.14v8A4.14,4.14,0,0,0,51,94.78h24a4.14,4.14,0,0,1,4.14,4.14v24A4.14,4.14,0,0,0,83.22,127h8a4.14,4.14,0,0,0,4.14-4.14v-24a4.14,4.14,0,0,1,4.14-4.14h24a4.14,4.14,0,0,0,4.14-4.14v-8A4.14,4.14,0,0,0,123.47,78.51Z"/><path class="cls-2" d="M87.21,169.28A82.78,82.78,0,1,0,4.43,86.5,82.79,82.79,0,0,0,87.21,169.28Zm0-152.83a70.05,70.05,0,1,1-70,70.05A70,70,0,0,1,87.21,16.45Z"/></svg>