<svg id="Layer_1" data-name="Layer 1" xmlns="http://www.w3.org/2000/svg" viewBox="0 0 173 173"><defs><style>.cls-1{fill:#00b2a9;}</style></defs><title>HIAS Web Store Icons_CS5</title><path class="cls-1" d="M151.22,141.5H64.68l2.42-4.13A37.52,37.52,0,0,0,22.8,82.83L19.19,84V47.17A17.61,17.61,0,0,1,36.78,29.59H151.22c4.77,0,8.65,4.79,8.65,9.57V47.7L40.74,47.59c-1.36,0-2.76,0-3.16,4.14H159.87V78H120a6.76,6.76,0,0,0-6.76,6.76v23.14a6.76,6.76,0,0,0,6.76,6.76h39.91v18.22A8.67,8.67,0,0,1,151.22,141.5ZM74,136h77.26a3.17,3.17,0,0,0,3.17-3.17V120.11H120a12.24,12.24,0,0,1-12.24-12.25V84.72A12.24,12.24,0,0,1,120,72.48h34.43V57.21H32V54.47c0-3.38,0-12.36,8.76-12.36l113.67.1a32,32,0,0,0,0-4.38c-.52-2.24-1.93-2.76-3.17-2.76H36.78a12.11,12.11,0,0,0-12.11,12.1V76.59A43,43,0,0,1,74,136Z"/><path class="cls-1" d="M156.14,80.37H127.67a11.77,11.77,0,0,0-11.76,11.75v8.28a11.78,11.78,0,0,0,11.76,11.75h28.47a11.77,11.77,0,0,0,11.75-11.75V92.12A11.76,11.76,0,0,0,156.14,80.37Zm6.26,20a6.27,6.27,0,0,1-6.26,6.26H127.67a6.27,6.27,0,0,1-6.27-6.26V92.12a6.27,6.27,0,0,1,6.27-6.27h28.47a6.27,6.27,0,0,1,6.26,6.27Z"/><path class="cls-1" d="M52.88,117.81a2,2,0,0,1-2,2H30.43V99.27a1.66,1.66,0,0,1,1.66-1.67h2.23A1.67,1.67,0,0,1,36,99.27v14.94H50.92a2,2,0,0,1,2,2Z"/><path class="cls-1" d="M36.26,84.69a30.19,30.19,0,1,0,30.19,30.19A30.18,30.18,0,0,0,36.26,84.69Zm0,54a23.83,23.83,0,1,1,23.83-23.83A23.83,23.83,0,0,1,36.26,138.71Z"/></svg>