<svg id="Layer_1" data-name="Layer 1" xmlns="http://www.w3.org/2000/svg" viewBox="0 0 173 173"><defs><style>.cls-1{fill:#00b4aa;fill-rule:evenodd;}</style></defs><title>HIAS Web Store Icons_CS5</title><path class="cls-1" d="M162.41,96.15h-1.94V55.09a10.27,10.27,0,0,0-10.26-10.27V11c0-6.13-5.73-8.43-10.27-7.22L14,42.52c-6.93,2.13-7.49,5.73-7.49,12.57V157.74A10.27,10.27,0,0,0,16.76,168H150.21a10.27,10.27,0,0,0,10.26-10.27V127h1.94a5.14,5.14,0,0,0,5.13-5.14V101.28A5.13,5.13,0,0,0,162.41,96.15Zm-25-79.89c1.56-.47,2.58.18,2.58,1.85V44.82H42.77Zm12.85,136.35a5.13,5.13,0,0,1-5.14,5.13H21.89a5.13,5.13,0,0,1-5.13-5.13V60.54c0-4.1.68-5.45,5.34-5.45h123a5.13,5.13,0,0,1,5.14,5.13V96.15H124.54a5.13,5.13,0,0,0-5.13,5.13v20.53a5.14,5.14,0,0,0,5.13,5.14h25.67Zm7.06-35.93H129.68V106.42h27.59Z"/></svg>