<svg id="Layer_1" data-name="Layer 1" xmlns="http://www.w3.org/2000/svg" viewBox="0 0 173 173"><defs><style>.cls-1{fill:#00b2a9;}</style></defs><title>HIAS Web Store Icons_CS5</title><path class="cls-1" d="M156.26,30a45.84,45.84,0,0,0-65.2-.37l-4.47,4.47-4.48-4.47A45.84,45.84,0,1,0,17.28,94.5l57.3,57.3a17,17,0,0,0,24,0l56.92-56.93C173.4,77,173.73,47.91,156.26,30Zm-6.75,58.83L92.58,145.8a8.51,8.51,0,0,1-12,0L23.28,88.5A37.36,37.36,0,0,1,76.11,35.67l4.48,4.48L73.73,47a4.25,4.25,0,0,0,6,6L97.06,35.67a37.35,37.35,0,0,1,53.13.31C164.42,50.54,164.12,74.26,149.51,88.87Z"/></svg>