<svg id="Layer_1" data-name="Layer 1" xmlns="http://www.w3.org/2000/svg" viewBox="0 0 173 173"><defs><style>.cls-1{fill:#00b2a9;}</style></defs><title>HIAS Web Store Icons_CS5</title><path class="cls-1" d="M150.35,15.82H21.67A17.42,17.42,0,0,0,4.25,33.24V84A17.42,17.42,0,0,0,21.67,101.4h16v44a11.76,11.76,0,0,0,11.75,11.76H122.5a11.76,11.76,0,0,0,11.75-11.76v-44h16.1A17.41,17.41,0,0,0,167.76,84V33.24A17.41,17.41,0,0,0,150.35,15.82ZM37.78,64.29H35.67A1.65,1.65,0,0,1,34,62.64V54.71a1.65,1.65,0,0,1,1.65-1.65h2.11Zm84,85.32H50c-2.7,0-4.74-.15-4.74-2.85l-.15-1.45h81.56l.15,1.45C126.83,149.46,124.49,149.61,121.79,149.61Zm0-10.62H50c-2.7.85-4.74.7-4.74-2l-.15-2.3h81.56l.15,2.3C126.83,139.69,124.49,139.84,121.79,139ZM86.25,82.35a31.64,31.64,0,0,0,31.54-29.29h8.89v69.43a4.88,4.88,0,0,1-4.89,4.88H50a4.88,4.88,0,0,1-4.89-4.88V53.06h9.59A31.64,31.64,0,0,0,86.25,82.35ZM61.74,53.06h49a24.67,24.67,0,0,1-49,0Zm96.79,28.33a11.76,11.76,0,0,1-11.75,11.75H134.25V71.6h5.92a4.76,4.76,0,0,0,4.76-4.76V50.42a4.76,4.76,0,0,0-4.76-4.76H31.94a4.76,4.76,0,0,0-4.75,4.76V66.84a4.76,4.76,0,0,0,4.75,4.76h5.74V93.14H25.24A11.75,11.75,0,0,1,13.49,81.39V36A11.75,11.75,0,0,1,25.24,24.24H146.78A11.76,11.76,0,0,1,158.53,36Zm-24.28-17.1V53.06h2.11A1.64,1.64,0,0,1,138,54.71v7.93a1.64,1.64,0,0,1-1.64,1.65Z"/></svg>